<svg xmlns="http://www.w3.org/2000/svg" width="1200" height="900" viewBox="0 0 1200 900" role="img" aria-label="Abstract financial illustration">
  <defs>
    <linearGradient id="a" x1="0" y1="0" x2="1" y2="1">
      <stop offset="0" stop-color="#4fd1c5" stop-opacity="0.55"/>
      <stop offset="1" stop-color="#7c6cff" stop-opacity="0.48"/>
    </linearGradient>
    <linearGradient id="b" x1="0" y1="0" x2="0" y2="1">
      <stop offset="0" stop-color="#ffffff"/>
      <stop offset="1" stop-color="#fff6fb"/>
    </linearGradient>
    <filter id="blur" x="-20%" y="-20%" width="140%" height="140%">
      <feGaussianBlur stdDeviation="14"/>
    </filter>
  </defs>
  <rect width="1200" height="900" fill="url(#b)"/>
  <circle cx="260" cy="210" r="160" fill="#ff4d9d" fill-opacity="0.14" filter="url(#blur)"/>
  <circle cx="980" cy="260" r="210" fill="#7c6cff" fill-opacity="0.12" filter="url(#blur)"/>
  <circle cx="780" cy="760" r="220" fill="#ffb9dc" fill-opacity="0.18" filter="url(#blur)"/>
  <g stroke="#0f172a" stroke-opacity="0.14" fill="none">
    <path d="M170 640 C 380 520, 470 640, 620 560 S 940 520, 1030 450" stroke-width="10" stroke-linecap="round"/>
    <path d="M170 690 C 390 570, 500 700, 645 610 S 950 555, 1030 500" stroke-width="6" stroke-linecap="round"/>
  </g>
  <g>
    <rect x="150" y="210" width="420" height="280" rx="28" fill="url(#a)" fill-opacity="0.12" stroke="#0f172a" stroke-opacity="0.10"/>
    <rect x="190" y="260" width="340" height="26" rx="13" fill="#0f172a" fill-opacity="0.10"/>
    <rect x="190" y="310" width="290" height="18" rx="9" fill="#0f172a" fill-opacity="0.08"/>
    <rect x="190" y="350" width="325" height="18" rx="9" fill="#0f172a" fill-opacity="0.08"/>
    <rect x="190" y="390" width="260" height="18" rx="9" fill="#0f172a" fill-opacity="0.08"/>
    <rect x="190" y="430" width="210" height="18" rx="9" fill="#0f172a" fill-opacity="0.08"/>
  </g>
  <g fill="#0f172a" fill-opacity="0.78" font-family="ui-sans-serif, system-ui, -apple-system, Segoe UI, Roboto, Helvetica, Arial">
    <text x="780" y="170" font-size="28" letter-spacing="0.2">MyPiggyBank</text>
    <text x="780" y="206" font-size="18" fill-opacity="0.55">A fictional demo UI</text>
  </g>
</svg>
